<?xml version="1.0" standalone="no"?>
<!DOCTYPE svg PUBLIC "-//W3C//DTD SVG 20010904//EN"
 "http://www.w3.org/TR/2001/REC-SVG-20010904/DTD/svg10.dtd">
<svg version="1.0" xmlns="http://www.w3.org/2000/svg"
 width="922.000000pt" height="922.000000pt" viewBox="0 0 922.000000 922.000000"
 preserveAspectRatio="xMidYMid meet">

<g transform="translate(0.000000,922.000000) scale(0.100000,-0.100000)"
fill="#000000" stroke="none">
<path d="M4565 7723 c-327 -10 -701 -100 -990 -239 -216 -103 -452 -252 -590
-373 -397 -345 -638 -714 -799 -1223 -57 -178 -83 -318 -98 -521 -30 -401 54
-800 242 -1153 33 -61 60 -117 60 -123 0 -8 -53 -11 -177 -11 -166 0 -181 -2
-228 -24 -56 -26 -98 -67 -114 -109 -7 -18 -11 -179 -11 -458 0 -409 1 -432
20 -469 69 -135 269 -138 359 -5 13 19 27 35 31 35 5 0 20 -13 33 -30 l26 -30
-34 -50 c-19 -28 -37 -65 -40 -83 -3 -18 -5 -264 -3 -547 l3 -515 27 -41 c37
-57 94 -102 152 -119 70 -21 455 -21 544 0 80 19 153 56 207 106 23 21 47 39
52 39 5 0 24 -20 42 -44 58 -77 147 -126 229 -126 52 0 129 32 178 73 38 32
50 33 64 8 5 -11 38 -33 72 -50 105 -53 207 -37 298 45 60 55 82 103 88 201 2
46 8 83 13 83 4 0 55 -58 113 -129 158 -193 204 -225 321 -225 56 0 80 5 121
26 61 32 140 116 149 159 10 45 31 47 73 7 72 -68 178 -129 292 -168 92 -31
307 -39 400 -15 101 26 187 73 248 133 38 38 59 52 67 46 7 -5 34 -26 61 -46
245 -186 585 -195 843 -23 131 86 237 227 283 375 30 99 33 318 4 420 -37 136
-135 288 -231 363 -30 23 -55 47 -55 53 0 6 10 19 21 30 35 30 69 114 69 167
0 53 -5 50 94 65 237 37 403 260 366 495 -23 151 -112 270 -249 335 -68 33
-83 36 -185 40 -61 2 -115 8 -120 12 -4 5 12 46 37 92 81 149 138 290 183 447
62 220 78 341 78 606 0 262 -14 367 -80 596 -237 828 -820 1454 -1629 1749
-286 104 -602 153 -930 143z m402 -143 c86 -11 180 -27 207 -34 77 -21 311
-108 314 -117 2 -4 9 -6 17 -3 7 3 16 1 19 -5 4 -6 -4 -9 -21 -7 -16 2 -34 4
-41 5 -7 0 -10 6 -7 11 3 6 2 10 -4 10 -5 0 -11 -5 -13 -12 -3 -8 -46 -11
-152 -10 -153 2 -191 11 -181 43 9 27 -71 32 -297 20 -499 -28 -607 -46 -908
-154 -338 -121 -618 -294 -892 -549 -55 -51 -115 -112 -134 -135 l-36 -43 52
-57 c59 -64 82 -107 100 -181 12 -53 12 -53 44 -45 17 4 65 8 106 8 60 0 85
-5 127 -26 l51 -25 39 29 c74 56 258 175 282 182 21 6 23 5 16 -11 -22 -53
-36 -148 -50 -348 -9 -122 -18 -226 -20 -232 -2 -6 -24 -14 -50 -17 -155 -22
-294 -155 -334 -321 -24 -99 23 -273 97 -358 31 -35 31 -35 12 -53 -36 -32
-62 -102 -63 -165 0 -49 6 -72 31 -122 18 -33 31 -62 30 -63 -2 -1 -46 -33
-98 -72 -52 -39 -234 -173 -404 -298 l-309 -228 -20 24 c-35 42 -128 250 -173
385 -106 322 -130 753 -58 1058 37 159 30 152 157 150 92 -2 112 -6 161 -30
97 -47 193 -169 211 -267 10 -51 21 -54 35 -10 53 164 196 406 330 560 l68 78
-394 3 c-257 1 -394 6 -394 12 0 16 76 165 133 260 104 175 300 411 453 544
318 279 743 498 1116 576 83 17 239 40 368 53 110 12 332 5 477 -13z m66 -117
c-7 -2 -21 -2 -30 0 -10 3 -4 5 12 5 17 0 24 -2 18 -5z m547 -63 c13 -9 13
-10 0 -10 -8 0 -22 5 -30 10 -13 9 -13 10 0 10 8 0 22 -5 30 -10z m139 -65 c9
-9 -16 -5 -61 11 -26 8 -49 22 -52 29 -4 10 12 7 51 -11 32 -13 59 -27 62 -29z
m71 -39 c0 -10 -30 0 -34 11 -4 11 -1 11 14 3 11 -6 20 -12 20 -14z m35 -24
c-3 -3 -11 0 -18 7 -9 10 -8 11 6 5 10 -3 15 -9 12 -12z m-1133 -135 c10 -20
31 -43 48 -52 38 -20 38 -28 -4 -53 -19 -11 -42 -34 -51 -51 -8 -17 -20 -31
-25 -31 -5 0 -17 14 -25 31 -9 17 -32 40 -51 51 -42 25 -42 33 -4 53 16 8 39
34 50 56 25 47 38 46 62 -4z m1373 -7 c3 -6 -1 -7 -9 -4 -18 7 -21 14 -7 14 6
0 13 -4 16 -10z m-2405 -80 c25 -13 41 -65 30 -95 -14 -37 -54 -58 -94 -51
-41 8 -55 23 -63 69 -4 29 -1 40 20 61 28 27 73 34 107 16z m2554 -51 c-8 -13
-24 -1 -24 18 0 13 3 13 15 3 8 -7 12 -16 9 -21z m-100 -39 c19 -17 40 -47 46
-65 11 -33 14 -35 54 -35 68 0 123 -59 114 -122 l-3 -23 -320 0 -320 0 -3 22
c-5 33 27 92 59 108 15 8 46 15 69 15 38 0 41 2 56 41 25 60 73 89 151 89 55
0 66 -3 97 -30z m-2730 -247 c35 -35 41 -64 21 -103 -43 -83 -165 -59 -165 33
0 86 86 128 144 70z m1919 -41 c82 -30 179 -114 215 -185 32 -63 29 -74 -17
-79 -22 -2 -38 -1 -36 3 5 7 -33 49 -44 49 -5 0 -8 8 -7 17 0 10 -6 18 -14 18
-8 1 -14 7 -12 13 1 7 -4 12 -11 10 -14 -3 -79 47 -71 55 3 2 -26 13 -63 23
-63 17 -111 19 -598 19 -525 0 -530 0 -577 -22 -59 -27 -130 -92 -174 -158
-19 -27 -34 -44 -34 -37 0 7 -14 12 -35 12 -49 0 -54 22 -21 86 52 100 178
185 299 205 29 4 295 6 591 3 l540 -6 69 -26z m1042 -89 c19 -20 35 -40 35
-44 0 -14 -64 -69 -80 -69 -16 0 -60 61 -60 84 0 19 39 66 55 66 8 0 30 -16
50 -37z m-604 -106 c96 -55 172 -114 314 -243 122 -111 198 -199 290 -334 69
-101 164 -292 197 -396 24 -78 26 -79 98 -89 l45 -6 18 60 c32 111 156 218
279 241 24 5 41 3 46 -4 13 -16 40 -157 52 -268 40 -382 -57 -863 -237 -1170
-19 -32 -37 -58 -41 -58 -5 0 -50 31 -102 68 -52 38 -160 116 -240 173 -80 58
-212 154 -295 213 -82 59 -156 113 -163 120 -10 10 -8 21 13 58 51 91 49 185
-6 264 l-31 46 50 52 c153 155 148 400 -10 555 -62 61 -130 96 -216 114 -33 7
-63 15 -65 17 -3 3 -10 97 -16 210 -12 198 -28 306 -57 376 -24 57 -22 57 77
1z m-540 -8 c64 -28 125 -96 144 -163 11 -38 14 -97 12 -236 l-2 -185 -435 -1
c-239 -1 -553 0 -697 3 l-263 6 0 184 c0 173 1 187 25 245 29 71 62 110 120
141 39 21 55 22 430 27 540 7 604 5 666 -21z m1138 -73 c17 -20 2 -46 -25 -46
-32 0 -43 29 -19 46 24 17 30 17 44 0z m405 -292 c20 -20 20 -33 -1 -56 -19
-21 -44 -23 -61 -6 -17 17 -15 38 5 60 20 22 37 23 57 2z m-3840 -195 c68 -81
-13 -195 -110 -154 -60 25 -74 100 -28 154 21 26 33 31 69 31 36 0 48 -5 69
-31z m2936 -175 c64 -30 107 -69 135 -125 52 -102 18 -134 -49 -47 -44 56 -82
83 -140 99 -26 7 -391 10 -1128 9 -1185 -1 -1119 2 -1195 -56 -18 -14 -42 -43
-53 -65 -17 -33 -25 -39 -52 -39 -30 0 -31 1 -25 41 6 47 48 110 100 153 69
56 47 55 1252 53 1103 -2 1110 -2 1155 -23z m-2042 -211 c43 -32 65 -69 69
-120 6 -56 -20 -102 -77 -141 -66 -45 -168 -14 -204 62 -34 72 -11 160 54 204
28 19 44 23 83 19 27 -2 60 -13 75 -24z m1880 0 c64 -48 86 -156 44 -212 -70
-94 -185 -93 -256 2 -27 36 -28 119 -2 163 29 49 82 75 139 71 27 -2 60 -13
75 -24z m-981 -65 c46 -43 20 -118 -40 -118 -41 0 -67 26 -67 67 0 64 61 94
107 51z m1190 -404 c51 -32 54 -98 6 -155 -53 -62 15 -59 -1244 -59 -1041 0
-1154 2 -1185 16 -98 47 -112 186 -21 213 20 7 457 8 1227 4 996 -4 1199 -7
1217 -19z m-2418 -423 c-2 -81 19 -133 81 -204 35 -39 38 -46 22 -53 -9 -4
-20 -7 -24 -6 -4 1 -27 -16 -50 -38 -24 -22 -46 -40 -49 -40 -15 0 -194 -152
-201 -170 -8 -22 -7 -22 -173 -24 -146 -2 -229 -25 -330 -91 -38 -25 -73 -45
-77 -45 -13 0 -98 92 -98 106 0 7 159 132 353 277 504 377 476 357 514 357
l33 0 -1 -69z m1723 -9 c3 -42 12 -93 21 -113 36 -88 123 -146 232 -157 l64
-7 105 -127 c59 -70 106 -129 106 -132 0 -2 -118 -2 -262 1 -223 5 -271 3
-318 -10 -63 -18 -132 -72 -158 -123 l-17 -34 -55 41 c-30 23 -74 51 -98 62
-24 12 -45 30 -47 42 -3 11 -11 110 -19 220 l-14 199 -31 28 c-55 49 -129 32
-149 -35 -6 -17 -13 -81 -16 -142 -4 -60 -9 -140 -12 -177 l-6 -68 -88 0
c-124 0 -203 -26 -272 -89 l-53 -49 -58 54 c-64 60 -126 84 -212 84 -82 0
-142 -26 -209 -92 -62 -60 -72 -63 -114 -30 l-23 18 152 182 152 182 67 0
c184 0 285 92 297 270 l6 80 512 0 512 0 5 -78z m862 -44 c85 -62 184 -135
222 -163 244 -176 444 -330 444 -341 0 -15 -50 -44 -74 -44 -8 0 -36 11 -62
25 -76 40 -171 29 -248 -30 l-34 -26 -46 29 c-25 16 -65 35 -90 42 -24 6 -65
30 -91 51 -26 21 -53 39 -61 39 -8 0 -14 4 -14 8 0 4 -14 16 -30 26 -17 9 -38
25 -48 35 -9 9 -34 29 -54 44 -30 22 -38 25 -38 12 0 -9 4 -14 9 -11 5 3 15
-2 22 -11 13 -15 11 -16 -15 -11 -38 7 -56 0 -56 -21 0 -10 -7 -18 -15 -18
-11 0 -13 6 -9 20 5 16 3 19 -11 13 -22 -8 -66 30 -58 50 3 8 9 11 14 8 9 -5
13 9 10 32 -1 7 8 14 19 17 12 3 20 12 18 19 -2 8 13 29 33 46 54 47 79 108
79 190 0 67 4 82 22 82 5 0 78 -51 162 -112z m-2394 23 c0 -22 26 -36 34 -18
5 9 7 9 12 0 4 -9 33 -13 95 -13 88 0 89 0 89 -25 0 -17 6 -25 17 -25 13 0 14
-3 6 -11 -8 -8 -46 -10 -111 -7 -105 4 -153 22 -150 56 3 36 -2 53 -14 46 -7
-4 -8 -3 -4 4 11 18 26 14 26 -7z m2070 2 c0 -24 -21 -54 -32 -47 -7 5 -9 2
-5 -9 7 -17 -17 -42 -32 -33 -5 4 -12 2 -16 -4 -10 -17 -211 -13 -245 5 -51
26 -70 74 -37 96 5 3 89 6 188 6 145 -1 179 -3 179 -14z m-1840 -3 c0 -6 -28
-10 -64 -10 -36 0 -68 5 -71 10 -4 6 20 10 64 10 41 0 71 -4 71 -10z m-230
-254 c0 -11 -19 -15 -25 -6 -3 5 1 10 9 10 9 0 16 -2 16 -4z m2027 -38 c-3 -8
-6 -5 -6 6 -1 11 2 17 5 13 3 -3 4 -12 1 -19z m125 -133 c2 3 5 -2 5 -10 0
-19 0 -19 -23 7 -12 14 -13 18 -3 10 9 -6 18 -10 21 -7z m55 -51 c0 -7 -6 -10
-14 -7 -7 3 -13 8 -13 12 0 4 6 8 13 8 8 0 14 -6 14 -13z m-1946 -199 c16 -9
36 -26 45 -40 20 -30 235 -668 241 -716 4 -31 0 -39 -27 -62 -66 -56 -133 -20
-166 89 -10 32 -22 65 -27 72 -7 8 -48 12 -142 12 -94 0 -135 -4 -143 -12 -5
-7 -17 -39 -26 -70 -24 -84 -53 -113 -111 -113 -86 0 -105 57 -61 182 35 99
113 342 147 457 46 152 74 197 135 216 36 11 97 4 135 -15z m-1506 -9 c66 -30
140 -111 155 -167 17 -63 8 -185 -18 -235 -11 -23 -44 -62 -72 -87 l-52 -47
76 -92 c62 -76 76 -99 76 -127 0 -49 -33 -81 -83 -81 -47 0 -66 18 -175 164
l-74 97 -46 -3 -47 -3 -5 -107 c-6 -122 -13 -136 -77 -145 -35 -5 -42 -2 -66
27 l-27 32 0 365 0 365 34 34 34 34 159 0 c145 0 162 -2 208 -24z m822 -11
c150 -75 243 -228 243 -401 0 -158 -109 -318 -267 -392 -52 -24 -69 -27 -163
-26 -92 0 -112 3 -163 27 -72 33 -184 142 -215 209 -81 175 -42 381 96 510 90
84 150 106 298 107 97 1 104 -1 171 -34z m1443 12 c162 -67 254 -193 267 -364
17 -222 -108 -405 -312 -458 -68 -17 -241 -20 -297 -5 -20 6 -48 24 -62 41
l-26 31 0 355 0 355 34 34 34 34 154 0 c136 0 159 -3 208 -23z m919 -3 c26
-33 27 -84 2 -115 -15 -19 -30 -24 -85 -27 l-66 -4 0 -318 c0 -360 1 -356 -76
-367 -33 -4 -45 -1 -70 20 l-29 25 -5 319 -5 318 -59 5 c-45 4 -62 11 -77 29
-27 33 -25 86 6 116 24 25 24 25 234 25 l210 0 20 -26z m537 2 c136 -63 205
-218 159 -357 -14 -42 -33 -69 -87 -122 l-69 -68 51 -64 c62 -80 90 -125 90
-147 0 -29 -49 -78 -79 -78 -39 0 -63 21 -132 113 -102 135 -116 147 -170 147
l-46 0 -7 -52 c-3 -29 -6 -79 -6 -110 0 -49 -3 -59 -26 -77 -35 -28 -77 -26
-111 3 l-28 24 -2 219 c0 120 1 292 4 382 8 224 -6 211 230 211 166 0 181 -2
229 -24z m1011 0 c200 -94 243 -346 83 -490 -69 -62 -119 -79 -247 -84 l-111
-4 -4 -105 c-3 -101 -4 -106 -31 -129 -36 -31 -78 -31 -114 0 l-28 24 -3 324
c-4 389 -1 422 40 460 l30 28 167 0 c155 0 170 -2 218 -24z m-596 -25 l29 -29
0 -362 0 -362 -29 -29 c-22 -21 -39 -29 -66 -29 -27 0 -44 8 -66 29 l-29 29 0
360 0 360 26 31 c36 43 93 44 135 2z m-523 -884 l26 -48 -36 -36 -36 -36 -32
26 c-17 15 -36 27 -41 27 -17 0 -9 29 11 40 11 6 27 27 35 46 19 47 39 42 73
-19z m674 -118 c216 -84 360 -285 375 -524 7 -114 -7 -183 -58 -285 -96 -192
-289 -310 -505 -310 -112 0 -176 14 -262 56 -193 94 -321 301 -322 517 0 87
14 143 60 242 47 103 103 172 184 230 162 116 351 142 528 74z m-3734 -2 c118
-62 184 -166 184 -290 0 -74 -16 -126 -54 -180 l-20 -27 50 -55 c60 -65 82
-124 82 -216 0 -137 -77 -257 -202 -315 l-63 -29 -230 -3 c-215 -2 -232 -1
-262 17 -64 40 -63 30 -63 561 -1 466 0 482 19 509 41 57 65 62 296 59 208 -3
210 -3 263 -31z m612 5 c14 -10 33 -34 42 -53 16 -31 18 -76 18 -504 0 -528 1
-520 -73 -558 -44 -23 -91 -17 -132 15 -54 42 -54 47 -55 559 -1 528 -6 495
71 547 39 27 87 25 129 -6z m413 3 c20 -14 56 -51 79 -83 114 -155 431 -543
442 -539 8 3 12 85 16 280 5 258 6 277 26 304 26 36 88 67 119 59 35 -9 86
-55 101 -93 18 -41 21 -925 3 -970 -23 -62 -89 -101 -152 -89 -55 10 -100 61
-397 446 -78 102 -146 187 -151 188 -5 2 -9 -109 -9 -257 0 -285 -4 -309 -55
-349 -38 -30 -112 -30 -149 -1 -57 45 -56 37 -56 556 0 449 1 480 19 509 19
32 72 63 106 64 11 0 37 -11 58 -25z m1582 10 c122 -32 195 -100 195 -182 0
-56 -22 -98 -61 -119 -37 -19 -62 -15 -148 21 -53 22 -75 26 -117 22 -109 -11
-203 -77 -251 -175 -24 -48 -28 -69 -27 -137 0 -103 31 -172 109 -243 116
-106 314 -125 384 -36 25 31 27 61 6 90 -12 18 -28 22 -90 26 -69 5 -80 8
-108 36 -26 27 -31 39 -31 80 0 102 48 132 209 132 129 0 167 -16 213 -87 47
-74 65 -151 60 -252 -5 -100 -26 -150 -91 -212 -99 -96 -256 -130 -441 -94
-163 31 -305 132 -392 280 -109 187 -87 482 51 657 127 162 344 241 530 193z"/>
<path d="M3791 3596 c-22 -68 -41 -129 -41 -135 0 -7 30 -11 90 -11 55 0 90 4
90 10 0 20 -83 260 -90 260 -4 0 -26 -56 -49 -124z"/>
<path d="M2152 3643 l3 -128 60 -3 c74 -4 124 10 156 44 20 22 24 35 24 91 0
60 -2 67 -33 94 -31 27 -37 29 -122 29 l-91 0 3 -127z"/>
<path d="M2947 3744 c-83 -43 -145 -159 -134 -251 8 -72 55 -153 110 -190 84
-56 167 -56 253 0 123 81 156 223 80 350 -65 109 -198 149 -309 91z"/>
<path d="M4430 3521 l0 -249 31 -7 c43 -10 137 4 179 25 150 77 175 304 46
418 -54 47 -98 62 -182 62 l-74 0 0 -249z"/>
<path d="M5857 3773 c-4 -3 -7 -64 -7 -135 l0 -128 93 0 c99 0 141 15 170 62
43 66 20 160 -46 191 -35 17 -196 25 -210 10z"/>
<path d="M6870 3640 l0 -130 90 0 c99 0 134 12 169 56 25 32 28 101 6 144 -27
52 -49 60 -162 60 l-103 0 0 -130z"/>
<path d="M6449 2650 c-98 -16 -191 -87 -236 -178 -24 -49 -28 -69 -28 -142 0
-73 4 -93 28 -142 31 -63 87 -115 158 -147 67 -31 200 -29 273 3 158 70 233
257 164 408 -65 142 -211 222 -359 198z"/>
<path d="M2650 2544 l0 -116 98 4 c128 5 159 27 176 121 6 34 4 41 -27 72
l-35 35 -106 0 -106 0 0 -116z"/>
<path d="M2645 2125 c-4 -57 -4 -112 -1 -121 6 -15 19 -16 119 -9 77 5 123 13
148 25 57 29 86 110 58 162 -19 36 -70 48 -198 48 l-119 0 -7 -105z"/>
</g>
</svg>
